<svg id="_0208_camera_1" xmlns="http://www.w3.org/2000/svg" xmlns:xlink="http://www.w3.org/1999/xlink" viewBox="0 0 500 500" data-imageid="camera-1-43" imageName="Camera 1" class="illustrations_image" style="width: 160px;"><defs><style>.cls-1_camera-1-43{fill:none;}.cls-1_camera-1-43,.cls-2_camera-1-43,.cls-3_camera-1-43,.cls-4_camera-1-43,.cls-5_camera-1-43,.cls-6_camera-1-43,.cls-7_camera-1-43,.cls-8_camera-1-43,.cls-9_camera-1-43,.cls-10_camera-1-43,.cls-11_camera-1-43,.cls-12_camera-1-43,.cls-13_camera-1-43,.cls-14_camera-1-43,.cls-15_camera-1-43,.cls-16_camera-1-43,.cls-17_camera-1-43,.cls-18_camera-1-43,.cls-19_camera-1-43,.cls-20_camera-1-43,.cls-21_camera-1-43,.cls-22_camera-1-43,.cls-23_camera-1-43,.cls-24_camera-1-43,.cls-25_camera-1-43,.cls-26_camera-1-43,.cls-27_camera-1-43,.cls-28_camera-1-43{stroke-width:0px;}.cls-2_camera-1-43{fill:url(#linear-gradient);}.cls-3_camera-1-43{fill:url(#linear-gradient-11-camera-1-43);}.cls-4_camera-1-43{fill:url(#linear-gradient-12-camera-1-43);}.cls-5_camera-1-43{fill:url(#linear-gradient-13-camera-1-43);}.cls-6_camera-1-43{fill:url(#linear-gradient-10-camera-1-43);}.cls-7_camera-1-43{fill:url(#linear-gradient-17-camera-1-43);}.cls-8_camera-1-43{fill:url(#linear-gradient-16-camera-1-43);}.cls-9_camera-1-43{fill:url(#linear-gradient-19-camera-1-43);}.cls-10_camera-1-43{fill:url(#linear-gradient-15-camera-1-43);}.cls-11_camera-1-43{fill:url(#linear-gradient-23-camera-1-43);}.cls-12_camera-1-43{fill:url(#linear-gradient-21-camera-1-43);}.cls-13_camera-1-43{fill:url(#linear-gradient-18-camera-1-43);}.cls-14_camera-1-43{fill:url(#linear-gradient-14-camera-1-43);}.cls-15_camera-1-43{fill:url(#linear-gradient-22-camera-1-43);}.cls-16_camera-1-43{fill:url(#linear-gradient-20-camera-1-43);}.cls-17_camera-1-43{fill:url(#linear-gradient-24-camera-1-43);}.cls-18_camera-1-43{fill:url(#linear-gradient-4-camera-1-43);}.cls-19_camera-1-43{fill:url(#linear-gradient-2-camera-1-43);}.cls-20_camera-1-43{fill:url(#linear-gradient-3-camera-1-43);}.cls-21_camera-1-43{fill:url(#linear-gradient-8-camera-1-43);}.cls-22_camera-1-43{fill:url(#linear-gradient-9-camera-1-43);}.cls-23_camera-1-43{fill:url(#linear-gradient-7-camera-1-43);}.cls-24_camera-1-43{fill:url(#linear-gradient-5-camera-1-43);}.cls-25_camera-1-43{fill:url(#linear-gradient-6-camera-1-43);}.cls-26_camera-1-43{isolation:isolate;opacity:.24;}.cls-26_camera-1-43,.cls-28_camera-1-43{fill:#68e1fd;}.cls-27_camera-1-43{fill:#fff;}</style><linearGradient id="linear-gradient-camera-1-43" x1="825.85" y1="1736.12" x2="566.83" y2="1338.78" gradientTransform="translate(-488.06 1853.27) scale(1 -1)" gradientUnits="userSpaceOnUse"><stop offset="0" stop-color="#231f20" stop-opacity="0"/><stop offset="1" stop-color="#231f20"/></linearGradient><linearGradient id="linear-gradient-2-camera-1-43" x1="853.73" y1="1601.21" x2="873.02" y2="1518.65" xlink:href="#linear-gradient-camera-1-43"/><linearGradient id="linear-gradient-3-camera-1-43" x1="713.86" y1="1662.26" x2="687.88" y2="1431.74" xlink:href="#linear-gradient-camera-1-43"/><linearGradient id="linear-gradient-4-camera-1-43" x1="707.73" y1="1674.92" x2="696.55" y2="1589.42" gradientTransform="translate(-488.06 1853.27) scale(1 -1)" gradientUnits="userSpaceOnUse"><stop offset="0" stop-color="#fff" stop-opacity="0"/><stop offset=".95" stop-color="#fff"/></linearGradient><linearGradient id="linear-gradient-5-camera-1-43" x1="573.13" y1="1673.91" x2="833.92" y2="1673.91" xlink:href="#linear-gradient-camera-1-43"/><linearGradient id="linear-gradient-6-camera-1-43" x1="592.15" y1="1686.61" x2="617.16" y2="1686.61" xlink:href="#linear-gradient-4-camera-1-43"/><linearGradient id="linear-gradient-7-camera-1-43" x1="617.9" y1="1684.16" x2="665.35" y2="1684.16" xlink:href="#linear-gradient-4-camera-1-43"/><linearGradient id="linear-gradient-8-camera-1-43" x1="652.15" y1="1676.5" x2="748.31" y2="1676.5" xlink:href="#linear-gradient-4-camera-1-43"/><linearGradient id="linear-gradient-9-camera-1-43" x1="716.88" y1="1685.2" x2="755.97" y2="1685.2" gradientTransform="translate(-471 1856.62) scale(1 -1)" xlink:href="#linear-gradient-4-camera-1-43"/><linearGradient id="linear-gradient-10-camera-1-43" x1="660.95" y1="1704.81" x2="734.68" y2="1704.81" gradientTransform="translate(-471 1856.62) scale(1 -1)" xlink:href="#linear-gradient-4-camera-1-43"/><linearGradient id="linear-gradient-11-camera-1-43" x1="710.72" y1="1724.99" x2="692.56" y2="1698.72" gradientTransform="translate(-471 1856.62) scale(1 -1)" xlink:href="#linear-gradient-4-camera-1-43"/><linearGradient id="linear-gradient-12-camera-1-43" x1="743.11" y1="1655.19" x2="625.33" y2="1537.83" gradientTransform="translate(-471 1856.62) scale(1 -1)" xlink:href="#linear-gradient-4-camera-1-43"/><linearGradient id="linear-gradient-13-camera-1-43" x1="756.08" y1="1631.04" x2="628.97" y2="1504.75" xlink:href="#linear-gradient-4-camera-1-43"/><linearGradient id="linear-gradient-14-camera-1-43" x1="624.63" y1="1625.48" x2="787.14" y2="1292.81" xlink:href="#linear-gradient-camera-1-43"/><linearGradient id="linear-gradient-15-camera-1-43" x1="591.92" y1="1622.26" x2="741.69" y2="1397.61" gradientTransform="translate(-530.24 1834.53) rotate(1.59) scale(1 -1)" xlink:href="#linear-gradient-camera-1-43"/><linearGradient id="linear-gradient-16-camera-1-43" x1="634.45" y1="1554.78" x2="757.67" y2="1343.54" gradientTransform="translate(-530.45 1834.49) rotate(1.6) scale(1 -1)" xlink:href="#linear-gradient-camera-1-43"/><linearGradient id="linear-gradient-17-camera-1-43" x1="606.18" y1="1530.34" x2="694.75" y2="1530.34" gradientTransform="translate(-530.57 1834.51) rotate(1.6) scale(1 -1)" xlink:href="#linear-gradient-camera-1-43"/><linearGradient id="linear-gradient-18-camera-1-43" x1="620.9" y1="1533.56" x2="684.5" y2="1533.56" gradientTransform="translate(-530.36 1834.57) rotate(1.59) scale(1 -1)" xlink:href="#linear-gradient-camera-1-43"/><linearGradient id="linear-gradient-19-camera-1-43" x1="637.1" y1="1536.04" x2="682.11" y2="1536.04" gradientTransform="translate(-488.07 1853.26) scale(1 -1)" xlink:href="#linear-gradient-camera-1-43"/><linearGradient id="linear-gradient-20-camera-1-43" x1="748.29" y1="1600.5" x2="773.88" y2="1600.5" xlink:href="#linear-gradient-camera-1-43"/><linearGradient id="linear-gradient-21-camera-1-43" x1="588.78" y1="1673.49" x2="580.67" y2="1586.87" gradientTransform="translate(-471 1856.62) scale(1 -1)" xlink:href="#linear-gradient-camera-1-43"/><linearGradient id="linear-gradient-22-camera-1-43" x1="756.74" y1="1529.22" x2="775.61" y2="1529.22" gradientTransform="translate(-471 1856.62) scale(1 -1)" xlink:href="#linear-gradient-camera-1-43"/><linearGradient id="linear-gradient-23-camera-1-43" x1="768.17" y1="1675.98" x2="815.87" y2="1675.98" xlink:href="#linear-gradient-4-camera-1-43"/><linearGradient id="linear-gradient-24-camera-1-43" x1="902.06" y1="1610.97" x2="774.65" y2="1518.2" xlink:href="#linear-gradient-camera-1-43"/></defs><path id="background_camera-1-43" class="cls-26_camera-1-43 targetColor" d="M45.2,172.44c-22.36,19.18-41.19,46.61-35.6,74.69,5.49,27.6,32.88,47.61,39.04,75.06,5.59,24.92-7.3,51.95,2.06,75.83,7.29,18.57,26.53,30.63,46,37.99,40.31,15.31,86.74,15.65,127.37,1.01,42.92-15.48,79.7-46.9,125.17-52.97,18.78-2.5,37.85-.45,56.79.38,24.86,1.08,53.87-2.03,67.32-21.84,7.3-10.76,8.24-24.18,8.77-36.96.77-18.95,1.11-38.21-4.07-56.53-8.56-30.29-31.98-59.16-24.4-89.68,3.66-14.76,14.43-27.7,15.62-42.83,1.5-19.14-12.83-36.3-29.11-47.73-20.05-13.95-43.39-22.43-67.72-24.61-45.33-4.09-89.9,4.44-133.81-7.4-74.61-20.12-126.25,7.69-153.41,36.04-14.66,15.32-23.44,65.31-40.02,79.54Z" style="fill: rgb(131, 57, 165);"/><g id="photo_camera-1-43"><polygon class="cls-27_camera-1-43" points="250.66 82.89 398.36 114.56 367.55 239.39 221.34 206.57 250.66 82.89"/><rect class="cls-26_camera-1-43 targetColor" x="273.99" y="82.86" width="75.86" height="131.19" transform="translate(97.15 419.03) rotate(-77.01)" style="fill: rgb(131, 57, 165);"/><path class="cls-2_camera-1-43" d="M250.66,82.89l9.39,2.47,28.5,75.83s50.3,3.35,52.81,4.6,25.54,2.1,39.4,18.45l-13.15,55.11-32.09-6.07-62.51-27.63-22.35-122.76Z"/><polygon class="cls-27_camera-1-43" points="98.64 97.93 245.34 61.88 272.17 187.63 126.31 222 98.64 97.93"/><rect class="cls-26_camera-1-43 targetColor" x="116.81" y="92.2" width="131.19" height="75.86" transform="translate(-24.48 44.08) rotate(-12.92)" style="fill: rgb(131, 57, 165);"/></g><g id="camera_camera-1-43"><path class="cls-28_camera-1-43 targetColor" d="M443.99,249.61c-8.2-9.42-21.28-14.75-33.57-12.5-10.4,1.9-19.13,8.66-28.43,13.69-30.18,16.33-69.6,13.78-97.41-6.29-.43,15.74,1.87,31.43,6.79,46.38,1.05,3.2,2.32,6.51,4.84,8.74,2.32,2.02,5.34,2.92,8.3,3.64,32.06,7.7,65.87,2.21,93.86-15.22,8.29-5.22,18.11-11.73,27.04-7.68,3.48,1.55,6.12,4.59,8.27,7.74,6.88,10.2,9.82,22.55,8.29,34.76-.26,2.02,5.9-1.49,6.37-1.86,2.48-1.93,3.23-6.07,3.99-8.86,2.09-7.74,1.86-16.63,2.41-24.56.94-13.64-1.41-27.27-10.73-37.99Z" style="fill: rgb(131, 57, 165);"/><path class="cls-19_camera-1-43" d="M443.99,249.61c-8.2-9.42-21.28-14.75-33.57-12.5-10.4,1.9-19.13,8.66-28.43,13.69-30.18,16.33-69.6,13.78-97.41-6.29-.43,15.74,1.87,31.43,6.79,46.38,1.05,3.2,2.32,6.51,4.84,8.74,2.32,2.02,5.34,2.92,8.3,3.64,32.06,7.7,65.87,2.21,93.86-15.22,8.29-5.22,18.11-11.73,27.04-7.68,3.48,1.55,6.12,4.59,8.27,7.74,6.88,10.2,9.82,22.55,8.29,34.76-.26,2.02,5.9-1.49,6.37-1.86,2.48-1.93,3.23-6.07,3.99-8.86,2.09-7.74,1.86-16.63,2.41-24.56.94-13.64-1.41-27.27-10.73-37.99Z"/><path class="cls-28_camera-1-43 targetColor" d="M353.34,330.29c-4.91,17.29-31.59,17.53-31.59,17.53l-239.79-24.62,2.5-149.1,263.79,10.26,5.08,145.92Z" style="fill: rgb(131, 57, 165);"/><path class="cls-20_camera-1-43" d="M353.34,330.29c-4.91,17.29-31.59,17.53-31.59,17.53l-239.79-24.62,2.5-149.1,263.79,10.26,5.08,145.92Z"/><circle class="cls-28_camera-1-43 targetColor" cx="296.1" cy="326.47" r="13.82" style="fill: rgb(131, 57, 165);"/><path class="cls-28_camera-1-43 targetColor" d="M84.06,214.1s8.08,9,19.25,8.69c11.17-.31,205.65,16.92,205.65,16.92,0,0,34.91-1.25,39.93-11.45l-.63-43.89-263.78-10.25-.43,39.98Z" style="fill: rgb(131, 57, 165);"/><path class="cls-18_camera-1-43" d="M84.06,214.1s8.08,9,19.25,8.69c11.17-.31,205.65,16.92,205.65,16.92,0,0,34.91-1.25,39.93-11.45l-.63-43.89-263.78-10.25-.43,39.98Z"/><line class="cls-1_camera-1-43" x1="348.23" y1="184.38" x2="353.34" y2="330.29"/><path class="cls-28_camera-1-43 targetColor" d="M353.67,339.64c-3.96,18.57-31.92,18.79-31.92,18.79l-239.97-24.62.18-10.6,239.79,24.62s26.68-.24,31.59-17.53l.33,9.35Z" style="fill: rgb(131, 57, 165);"/><path class="cls-28_camera-1-43 targetColor" d="M340.8,190.74c-5.26,4.77-12.27,7.13-19.35,6.48l-233.82-21.41c-1.55-.13-2.69-1.5-2.56-3.04.09-1.07.78-1.99,1.78-2.37l16.93-6.58c5.17-2.01,10.73-2.78,16.25-2.26l219.01,18.26c8.18.19,7.61,6.28,5.35,7.64l-3.61,3.28Z" style="fill: rgb(131, 57, 165);"/><path class="cls-24_camera-1-43" d="M340.8,190.74c-5.26,4.77-12.27,7.13-19.35,6.48l-233.82-21.41c-1.55-.13-2.69-1.5-2.56-3.04.09-1.07.78-1.99,1.78-2.37l16.93-6.58c5.17-2.01,10.73-2.78,16.25-2.26l219.01,18.26c8.18.19,7.61,6.28,5.35,7.64l-3.61,3.28Z"/><path class="cls-28_camera-1-43 targetColor" d="M128.95,169.59c.05,2.17-5.32,4.06-12.01,4.25s-12.16-1.41-12.23-3.57c0-.68-1.19-6.4-.26-6.96,2.03-1.27,7.37-3.7,11.95-3.82,4.58-.12,10.14,1.4,12.2,2.59.89.5.33,6.86.36,7.51Z" style="fill: rgb(131, 57, 165);"/><path class="cls-25_camera-1-43" d="M128.95,169.59c.05,2.17-5.32,4.06-12.01,4.25s-12.16-1.41-12.23-3.57c0-.68-1.19-6.4-.26-6.96,2.03-1.27,7.37-3.7,11.95-3.82,4.58-.12,10.14,1.4,12.2,2.59.89.5.33,6.86.36,7.51Z"/><ellipse class="cls-28_camera-1-43 targetColor" cx="116.49" cy="163.37" rx="12.12" ry="3.92" transform="translate(-4.49 3.3) rotate(-1.59)" style="fill: rgb(131, 57, 165);"/><path class="cls-28_camera-1-43 targetColor" d="M176.19,172.4c.07,2.58-10.06,4.97-22.7,5.32-12.64.35-22.9-1.45-22.97-4.04,0-.88-1.73-8.89.32-9.66,3.95-1.47,13.29-3.3,21.6-3.54s19.95,1.44,23.99,2.69c2.07.64-.27,8.35-.24,9.22Z" style="fill: rgb(131, 57, 165);"/><path class="cls-23_camera-1-43" d="M176.19,172.4c.07,2.58-10.06,4.97-22.7,5.32-12.64.35-22.9-1.45-22.97-4.04,0-.88-1.73-8.89.32-9.66,3.95-1.47,13.29-3.3,21.6-3.54s19.95,1.44,23.99,2.69c2.07.64-.27,8.35-.24,9.22Z"/><ellipse class="cls-28_camera-1-43 targetColor" cx="154.09" cy="164.36" rx="22.84" ry="4.68" transform="translate(-4.5 4.34) rotate(-1.59)" style="fill: rgb(131, 57, 165);"/><path class="cls-28_camera-1-43 targetColor" d="M164.09,186.43l25.88-29.23,55.94,6,14.34,33.14s-91.52-4.16-96.16-9.9Z" style="fill: rgb(131, 57, 165);"/><path class="cls-21_camera-1-43" d="M164.09,186.43l25.88-29.23,55.94,6,14.34,33.14s-91.52-4.16-96.16-9.9Z"/><polygon class="cls-28_camera-1-43 targetColor" points="263.31 146.5 245.88 163.19 260.23 196.34 284.97 171.47 263.31 146.5" style="fill: rgb(131, 57, 165);"/><polygon class="cls-22_camera-1-43" points="263.31 146.5 245.88 163.19 260.23 196.34 284.97 171.47 263.31 146.5"/><polygon class="cls-28_camera-1-43 targetColor" points="189.95 157.2 210.03 140.43 263.68 144.66 245.88 163.19 189.95 157.2" style="fill: rgb(131, 57, 165);"/><polygon class="cls-6_camera-1-43" points="189.95 157.2 210.03 140.43 263.68 144.66 245.88 163.19 189.95 157.2"/><line class="cls-1_camera-1-43" x1="245.88" y1="163.19" x2="189.95" y2="157.2"/><polygon class="cls-28_camera-1-43 targetColor" points="215.97 137.75 199.9 152.73 244.9 157.91 259.98 142.4 250.75 142.1 245.05 148.54 215.48 145.31 222.97 138.39 215.97 137.75" style="fill: rgb(131, 57, 165);"/><polygon class="cls-3_camera-1-43" points="215.97 135.97 199.9 150.95 244.9 156.12 259.98 140.62 250.75 140.32 245.05 146.76 215.48 143.53 222.97 136.61 215.97 135.97"/><polygon class="cls-28_camera-1-43 targetColor" points="164.07 186.43 144 339.34 246.39 348.79 279.61 313.04 260.96 197.44 164.07 186.43" style="fill: rgb(131, 57, 165);"/><polygon class="cls-4_camera-1-43" points="164.07 186.43 144 339.34 248.17 347.94 280.23 312.63 260.96 197.44 164.07 186.43"/><path class="cls-5_camera-1-43" d="M158.67,225.72s35.1-19.42,66.27-6.88c31.17,12.54,55.71,44.15,48.16,103.49,0,0-14.3-127.07-114.94-92.4l.51-4.21Z"/><path class="cls-28_camera-1-43 targetColor" d="M110.38,269.36l51.91-41.65s36.12-12.74,59.58,2.53c23.46,15.27,50.82,32.97,51.2,92.08l-52.04,53.96s-43.4,41.79-97.91,11.44c-54.51-30.34-33.53-96.82-12.74-118.36Z" style="fill: rgb(131, 57, 165);"/><path class="cls-14_camera-1-43" d="M112.48,266l49.81-38.3s36.12-12.74,59.58,2.53c23.46,15.27,50.82,32.97,51.2,92.08l-52.04,53.96s-43.4,41.79-97.91,11.44c-54.51-30.34-31.43-100.17-10.65-121.71Z"/><ellipse class="cls-28_camera-1-43 targetColor" cx="164.98" cy="323.42" rx="77.88" ry="76.24" transform="translate(-8.91 4.7) rotate(-1.59)" style="fill: rgb(131, 57, 165);"/><ellipse class="cls-10_camera-1-43" cx="165.81" cy="323.93" rx="70.3" ry="67.24" transform="translate(-8.92 4.73) rotate(-1.59)"/><ellipse class="cls-8_camera-1-43" cx="162.98" cy="326.93" rx="51.46" ry="51.47" transform="translate(-9.07 4.68) rotate(-1.6)"/><ellipse class="cls-7_camera-1-43" cx="162.4" cy="322.94" rx="44.28" ry="44.29" transform="translate(-8.96 4.66) rotate(-1.6)"/><ellipse class="cls-13_camera-1-43" cx="164.64" cy="319.71" rx="31.8" ry="31.81" transform="translate(-8.81 4.69) rotate(-1.59)"/><ellipse class="cls-28_camera-1-43 targetColor" cx="169.42" cy="318.82" rx="26.99" ry="26.99" transform="translate(-9.54 5.26) rotate(-1.73)" style="fill: rgb(131, 57, 165);"/><circle class="cls-9_camera-1-43" cx="171.54" cy="317.22" r="22.5"/><path class="cls-16_camera-1-43" d="M264.59,192.03l21.23,105.24s-.41,15.52-4.16,16.25l-21.43-117.15,4.36-4.33Z"/><polygon class="cls-12_camera-1-43" points="99.19 194.25 132.92 197.08 132.85 209.56 98.8 206.42 99.19 194.25"/><path class="cls-28_camera-1-43 targetColor" d="M102.38,195.89s12.87,6.51,27.97,2.84l.26,9.22s-20.89,2.73-28.37-2.32l.15-9.73Z" style="fill: rgb(131, 57, 165);"/><circle class="cls-28_camera-1-43 targetColor" cx="283.97" cy="215.73" r="5.45" style="fill: rgb(131, 57, 165);"/><circle class="cls-15_camera-1-43" cx="295.17" cy="327.4" r="9.43"/><circle class="cls-28_camera-1-43 targetColor" cx="291.04" cy="328.8" r="8.66" style="fill: rgb(131, 57, 165);"/><path class="cls-28_camera-1-43 targetColor" d="M327.26,183.33c.07,2.54-10.28,4.9-23.12,5.25-12.84.36-23.31-1.42-23.38-3.96,0-.96-1.83-14.35.67-15.15,7.2-2.03,14.62-3.2,22.09-3.51,7.2-.2,18.03,1.66,22.32,2.56,3.37.7,1.39,13.69,1.42,14.81Z" style="fill: rgb(131, 57, 165);"/><path class="cls-11_camera-1-43" d="M327.26,183.33c.07,2.54-10.28,4.9-23.12,5.25-12.84.36-23.31-1.42-23.38-3.96,0-.96-1.83-14.35.67-15.15,7.2-2.03,14.62-3.2,22.09-3.51,7.2-.2,18.03,1.66,22.32,2.56,3.37.7,1.39,13.69,1.42,14.81Z"/><ellipse class="cls-28_camera-1-43 targetColor" cx="303.63" cy="170.59" rx="23.26" ry="4.61" transform="translate(-4.62 8.49) rotate(-1.59)" style="fill: rgb(131, 57, 165);"/><path class="cls-28_camera-1-43 targetColor" d="M341.45,211.21c4.81,3.81,10.13,7.07,14.3,11.61,6.19,6.72,9.38,15.73,10.83,24.76,1.45,9.03,1.42,18.22,2.03,27.33.77,11.68,2.65,23.27,5.61,34.6,3.41,13.12,9.29,27.08,21.52,32.93,5.78,2.78,12.33,3.4,18.73,3.81,6.75.44,13.63.69,20.17-1.02s12.8-5.66,15.8-11.72c1.86-3.76,2.32-8.03,2.73-12.22,1.05-11.76,1.37-23.57.94-35.36-2.59,4.84-5.24,9.76-9.06,13.7-3.82,3.95-25.26,28.22-42.51-9.37-5.74-12.52-7.04-26.03-7.49-39.8-.48-14.82-3.92-29.7-11.23-42.6-7.57-13.33-24.89-32.35-41.99-30.95-7.04.58-9.9,4.7-11.14,11.27-1.85,9.87,3.26,17.09,10.76,23.04Z" style="fill: rgb(131, 57, 165);"/><path class="cls-17_camera-1-43" d="M341.45,211.21c4.81,3.81,10.13,7.07,14.3,11.61,6.19,6.72,9.38,15.73,10.83,24.76,1.45,9.03,1.42,18.22,2.03,27.33.77,11.68,2.65,23.27,5.61,34.6,3.41,13.12,9.29,27.08,21.52,32.93,5.78,2.78,12.33,3.4,18.73,3.81,6.75.44,13.63.69,20.17-1.02s12.8-5.66,15.8-11.72c1.86-3.76,2.32-8.03,2.73-12.22,1.05-11.76,1.37-23.57.94-35.36-2.59,4.84-5.24,9.76-9.06,13.7-3.82,3.95-25.26,28.22-42.51-9.37-5.74-12.52-7.04-26.03-7.49-39.8-.48-14.82-3.92-29.7-11.23-42.6-7.57-13.33-24.89-32.35-41.99-30.95-7.04.58-9.9,4.7-11.14,11.27-1.85,9.87,3.26,17.09,10.76,23.04Z"/><path class="cls-28_camera-1-43 targetColor" d="M341.73,206.46c4.81,3.81,10.13,7.07,14.3,11.61,6.19,6.72,9.38,15.73,10.83,24.76,1.45,9.03,1.42,18.22,2.03,27.34.78,11.68,2.66,23.26,5.61,34.59,3.41,13.12,9.29,27.08,21.52,32.93,5.78,2.78,12.33,3.4,18.73,3.81,6.75.43,13.63.68,20.17-1.03,6.54-1.71,12.8-5.66,15.8-11.72,1.86-3.77,2.36-8.04,2.73-12.23,1.05-11.76,1.37-23.57.94-35.36-2.59,4.84-5.24,9.76-9.06,13.7-3.82,3.95-25.26,28.22-42.51-9.37-5.74-12.52-7.04-26.03-7.49-39.8-.48-14.82-3.92-29.69-11.23-42.56-7.56-13.34-24.89-32.35-41.99-30.95-7.04.58-9.9,4.7-11.14,11.27-1.85,9.84,3.26,17.05,10.76,23Z" style="fill: rgb(131, 57, 165);"/></g></svg>